<svg xmlns="http://www.w3.org/2000/svg" xmlns:xlink="http://www.w3.org/1999/xlink" width="500" zoomAndPan="magnify" viewBox="0 0 375 374.999991" height="500" preserveAspectRatio="xMidYMid meet" version="1.2"><defs><clipPath id="1e58cfd63a"><path d="M 19.085938 9.253906 L 119.003906 9.253906 L 119.003906 109.167969 L 19.085938 109.167969 Z M 19.085938 9.253906 "/></clipPath><clipPath id="81f6d45ce9"><path d="M 152.476562 9.253906 L 252.390625 9.253906 L 252.390625 109.167969 L 152.476562 109.167969 Z M 152.476562 9.253906 "/></clipPath><clipPath id="e3a44c18df"><path d="M 19.085938 142.664062 L 119.003906 142.664062 L 119.003906 242.578125 L 19.085938 242.578125 Z M 19.085938 142.664062 "/></clipPath><clipPath id="d7fa0a8ad4"><path d="M 252.390625 142.664062 L 352.304688 142.664062 L 352.304688 368.429688 L 252.390625 368.429688 Z M 252.390625 142.664062 "/></clipPath><clipPath id="86b2aeb032"><path d="M 152.476562 268.515625 L 352.304688 268.515625 L 352.304688 368.429688 L 152.476562 368.429688 Z M 152.476562 268.515625 "/></clipPath></defs><g id="805820f568"><g clip-rule="nonzero" clip-path="url(#1e58cfd63a)"><path style=" stroke:none;fill-rule:nonzero;fill:#d9f869;fill-opacity:1;" d="M 19.085938 9.253906 L 119.003906 9.253906 L 119.003906 109.167969 L 19.085938 109.167969 Z M 19.085938 9.253906 "/></g><g clip-rule="nonzero" clip-path="url(#81f6d45ce9)"><path style=" stroke:none;fill-rule:nonzero;fill:#d9f869;fill-opacity:1;" d="M 152.476562 9.253906 L 252.390625 9.253906 L 252.390625 109.167969 L 152.476562 109.167969 Z M 152.476562 9.253906 "/></g><g clip-rule="nonzero" clip-path="url(#e3a44c18df)"><path style=" stroke:none;fill-rule:nonzero;fill:#d9f869;fill-opacity:1;" d="M 19.085938 142.664062 L 119.003906 142.664062 L 119.003906 242.578125 L 19.085938 242.578125 Z M 19.085938 142.664062 "/></g><g clip-rule="nonzero" clip-path="url(#d7fa0a8ad4)"><path style=" stroke:none;fill-rule:nonzero;fill:#d9f869;fill-opacity:1;" d="M 252.390625 142.664062 L 352.304688 142.664062 L 352.304688 368.253906 L 252.390625 368.253906 Z M 252.390625 142.664062 "/></g><g clip-rule="nonzero" clip-path="url(#86b2aeb032)"><path style=" stroke:none;fill-rule:nonzero;fill:#d9f869;fill-opacity:1;" d="M 152.476562 268.515625 L 352.304688 268.515625 L 352.304688 368.429688 L 152.476562 368.429688 Z M 152.476562 268.515625 "/></g></g></svg>