<svg xmlns="http://www.w3.org/2000/svg" xmlns:xlink="http://www.w3.org/1999/xlink" width="500" zoomAndPan="magnify" viewBox="0 0 375 374.999991" height="500" preserveAspectRatio="xMidYMid meet" version="1.2"><defs><clipPath id="4abc90e8b1"><path d="M 19.085938 9.253906 L 119.003906 9.253906 L 119.003906 109.167969 L 19.085938 109.167969 Z M 19.085938 9.253906 "/></clipPath><clipPath id="bd3bc8f369"><path d="M 152.476562 9.253906 L 252.390625 9.253906 L 252.390625 109.167969 L 152.476562 109.167969 Z M 152.476562 9.253906 "/></clipPath><clipPath id="43eed9eaad"><path d="M 19.085938 142.664062 L 119.003906 142.664062 L 119.003906 242.578125 L 19.085938 242.578125 Z M 19.085938 142.664062 "/></clipPath><clipPath id="e774d0b400"><path d="M 252.390625 142.664062 L 352.304688 142.664062 L 352.304688 368.429688 L 252.390625 368.429688 Z M 252.390625 142.664062 "/></clipPath><clipPath id="359af040ce"><path d="M 152.476562 268.515625 L 352.304688 268.515625 L 352.304688 368.429688 L 152.476562 368.429688 Z M 152.476562 268.515625 "/></clipPath></defs><g id="f9cf2c1891"><g clip-rule="nonzero" clip-path="url(#4abc90e8b1)"><path style=" stroke:none;fill-rule:nonzero;fill:#98e93c;fill-opacity:1;" d="M 19.085938 9.253906 L 119.003906 9.253906 L 119.003906 109.167969 L 19.085938 109.167969 Z M 19.085938 9.253906 "/></g><g clip-rule="nonzero" clip-path="url(#bd3bc8f369)"><path style=" stroke:none;fill-rule:nonzero;fill:#98e93c;fill-opacity:1;" d="M 152.476562 9.253906 L 252.390625 9.253906 L 252.390625 109.167969 L 152.476562 109.167969 Z M 152.476562 9.253906 "/></g><g clip-rule="nonzero" clip-path="url(#43eed9eaad)"><path style=" stroke:none;fill-rule:nonzero;fill:#98e93c;fill-opacity:1;" d="M 19.085938 142.664062 L 119.003906 142.664062 L 119.003906 242.578125 L 19.085938 242.578125 Z M 19.085938 142.664062 "/></g><g clip-rule="nonzero" clip-path="url(#e774d0b400)"><path style=" stroke:none;fill-rule:nonzero;fill:#98e93c;fill-opacity:1;" d="M 252.390625 142.664062 L 352.304688 142.664062 L 352.304688 368.253906 L 252.390625 368.253906 Z M 252.390625 142.664062 "/></g><g clip-rule="nonzero" clip-path="url(#359af040ce)"><path style=" stroke:none;fill-rule:nonzero;fill:#98e93c;fill-opacity:1;" d="M 152.476562 268.515625 L 352.304688 268.515625 L 352.304688 368.429688 L 152.476562 368.429688 Z M 152.476562 268.515625 "/></g></g></svg>