<svg xmlns="http://www.w3.org/2000/svg" xmlns:xlink="http://www.w3.org/1999/xlink" width="500" zoomAndPan="magnify" viewBox="0 0 375 374.999991" height="500" preserveAspectRatio="xMidYMid meet" version="1.2"><defs><clipPath id="f690ae5f4a"><path d="M 19.085938 9.253906 L 119.003906 9.253906 L 119.003906 109.167969 L 19.085938 109.167969 Z M 19.085938 9.253906 "/></clipPath><clipPath id="ca21000f63"><path d="M 152.476562 9.253906 L 252.390625 9.253906 L 252.390625 109.167969 L 152.476562 109.167969 Z M 152.476562 9.253906 "/></clipPath><clipPath id="2294b48a2c"><path d="M 19.085938 142.664062 L 119.003906 142.664062 L 119.003906 242.578125 L 19.085938 242.578125 Z M 19.085938 142.664062 "/></clipPath><clipPath id="941edbc1b0"><path d="M 252.390625 142.664062 L 352.304688 142.664062 L 352.304688 368.429688 L 252.390625 368.429688 Z M 252.390625 142.664062 "/></clipPath><clipPath id="7af719cc2b"><path d="M 152.476562 268.515625 L 352.304688 268.515625 L 352.304688 368.429688 L 152.476562 368.429688 Z M 152.476562 268.515625 "/></clipPath></defs><g id="366d14b9bd"><g clip-rule="nonzero" clip-path="url(#f690ae5f4a)"><path style=" stroke:none;fill-rule:nonzero;fill:#000000;fill-opacity:1;" d="M 19.085938 9.253906 L 119.003906 9.253906 L 119.003906 109.167969 L 19.085938 109.167969 Z M 19.085938 9.253906 "/></g><g clip-rule="nonzero" clip-path="url(#ca21000f63)"><path style=" stroke:none;fill-rule:nonzero;fill:#000000;fill-opacity:1;" d="M 152.476562 9.253906 L 252.390625 9.253906 L 252.390625 109.167969 L 152.476562 109.167969 Z M 152.476562 9.253906 "/></g><g clip-rule="nonzero" clip-path="url(#2294b48a2c)"><path style=" stroke:none;fill-rule:nonzero;fill:#000000;fill-opacity:1;" d="M 19.085938 142.664062 L 119.003906 142.664062 L 119.003906 242.578125 L 19.085938 242.578125 Z M 19.085938 142.664062 "/></g><g clip-rule="nonzero" clip-path="url(#941edbc1b0)"><path style=" stroke:none;fill-rule:nonzero;fill:#000000;fill-opacity:1;" d="M 252.390625 142.664062 L 352.304688 142.664062 L 352.304688 368.253906 L 252.390625 368.253906 Z M 252.390625 142.664062 "/></g><g clip-rule="nonzero" clip-path="url(#7af719cc2b)"><path style=" stroke:none;fill-rule:nonzero;fill:#000000;fill-opacity:1;" d="M 152.476562 268.515625 L 352.304688 268.515625 L 352.304688 368.429688 L 152.476562 368.429688 Z M 152.476562 268.515625 "/></g></g></svg>